<svg version="1.1" id="Layer_1" xmlns="http://www.w3.org/2000/svg" xmlns:xlink="http://www.w3.org/1999/xlink" x="0px" y="0px"
	 width="100%" viewBox="0 0 383 362" enable-background="new 0 0 383 362" xml:space="preserve">
<path fill="#FCFCFC" opacity="1.000000" stroke="none" 
	d="
M224.000000,363.000000 
	C149.358215,363.000000 75.216438,363.000000 1.037326,363.000000 
	C1.037326,242.398712 1.037326,121.797409 1.037326,1.098054 
	C128.558395,1.098054 256.116882,1.098054 383.837708,1.098054 
	C383.837708,121.666489 383.837708,242.333221 383.837708,363.000000 
	C330.797485,363.000000 277.648743,363.000000 224.000000,363.000000 
M341.674225,234.161057 
	C344.293488,228.660553 348.395508,223.374832 349.229736,217.615753 
	C351.083771,204.816238 351.424072,191.786560 352.152161,178.837799 
	C352.919006,165.200500 352.706451,151.324341 365.125885,140.710663 
	C355.815674,140.089859 348.924744,136.407730 343.309784,130.406250 
	C340.015533,126.885208 336.916748,123.171539 333.870972,119.429787 
	C326.407806,110.261246 319.344788,100.745163 311.529236,91.891037 
	C302.367798,81.512146 291.088196,75.970757 276.761719,79.627998 
	C276.374695,79.726799 275.876648,79.390862 275.096283,79.157921 
	C274.676941,61.867325 263.220490,53.411156 248.958206,47.469421 
	C241.594391,44.401623 234.028412,41.820465 226.564194,38.991970 
	C212.396271,33.623177 196.867950,30.311954 189.518555,13.285219 
	C184.656555,26.158388 174.428360,30.974567 163.676193,35.049988 
	C152.630722,39.236576 141.450974,43.077637 130.470642,47.425167 
	C115.988350,53.159267 105.196884,62.213242 103.882309,79.108749 
	C103.871597,79.246407 103.686340,79.370483 103.295326,79.861961 
	C86.995140,75.112991 75.124817,82.909859 65.133224,94.800781 
	C57.529903,103.849434 50.462906,113.346870 43.069866,122.574600 
	C35.802578,131.645386 27.970287,139.945679 14.100576,140.705246 
	C26.361771,151.091995 26.654364,164.494629 27.055511,177.902191 
	C27.354418,187.892502 27.504055,197.903717 28.303696,207.858749 
	C29.525383,223.068024 34.332569,236.281128 50.119976,242.436432 
	C50.358463,242.529434 50.460854,242.971481 50.810863,243.560410 
	C41.933670,256.399139 44.431999,269.347504 51.849735,281.826965 
	C57.458179,291.262543 63.686069,300.338806 69.836769,309.440857 
	C77.343361,320.549377 84.893364,331.572784 81.336327,346.975800 
	C91.394882,340.583923 101.209335,341.137604 111.103447,343.770050 
	C119.461243,345.993744 127.691910,348.701843 136.067276,350.850861 
	C143.468491,352.749878 150.929291,354.596649 158.475342,355.710602 
	C170.865860,357.539734 181.525482,353.933105 189.292236,343.695160 
	C190.131058,344.195129 190.659241,344.350616 190.943970,344.702850 
	C199.302856,355.043976 210.388702,357.676636 222.831528,355.419189 
	C231.156647,353.908752 239.348862,351.638550 247.568924,349.581848 
	C264.043091,345.459991 280.144470,336.598785 298.187073,346.702484 
	C295.010071,335.238037 298.797333,326.091492 304.325714,317.508942 
	C310.908295,307.289764 318.060425,297.433472 324.521423,287.140991 
	C333.257385,273.224426 339.252258,258.818420 328.598114,243.507080 
	C333.095093,240.353424 337.141327,237.515854 341.674225,234.161057 
z"/>
<path fill="#272224" opacity="1.000000" stroke="none" 
	d="
M341.430908,234.419678 
	C337.141327,237.515854 333.095093,240.353424 328.598114,243.507080 
	C339.252258,258.818420 333.257385,273.224426 324.521423,287.140991 
	C318.060425,297.433472 310.908295,307.289764 304.325714,317.508942 
	C298.797333,326.091492 295.010071,335.238037 298.187073,346.702484 
	C280.144470,336.598785 264.043091,345.459991 247.568924,349.581848 
	C239.348862,351.638550 231.156647,353.908752 222.831528,355.419189 
	C210.388702,357.676636 199.302856,355.043976 190.943970,344.702850 
	C190.659241,344.350616 190.131058,344.195129 189.292236,343.695160 
	C181.525482,353.933105 170.865860,357.539734 158.475342,355.710602 
	C150.929291,354.596649 143.468491,352.749878 136.067276,350.850861 
	C127.691910,348.701843 119.461243,345.993744 111.103447,343.770050 
	C101.209335,341.137604 91.394882,340.583923 81.336327,346.975800 
	C84.893364,331.572784 77.343361,320.549377 69.836769,309.440857 
	C63.686069,300.338806 57.458179,291.262543 51.849735,281.826965 
	C44.431999,269.347504 41.933670,256.399139 50.810863,243.560410 
	C50.460854,242.971481 50.358463,242.529434 50.119976,242.436432 
	C34.332569,236.281128 29.525383,223.068024 28.303696,207.858749 
	C27.504055,197.903717 27.354418,187.892502 27.055511,177.902191 
	C26.654364,164.494629 26.361771,151.091995 14.100576,140.705246 
	C27.970287,139.945679 35.802578,131.645386 43.069866,122.574600 
	C50.462906,113.346870 57.529903,103.849434 65.133224,94.800781 
	C75.124817,82.909859 86.995140,75.112991 103.295326,79.861961 
	C103.686340,79.370483 103.871597,79.246407 103.882309,79.108749 
	C105.196884,62.213242 115.988350,53.159267 130.470642,47.425167 
	C141.450974,43.077637 152.630722,39.236576 163.676193,35.049988 
	C174.428360,30.974567 184.656555,26.158388 189.518555,13.285219 
	C196.867950,30.311954 212.396271,33.623177 226.564194,38.991970 
	C234.028412,41.820465 241.594391,44.401623 248.958206,47.469421 
	C263.220490,53.411156 274.676941,61.867325 275.096283,79.157921 
	C275.876648,79.390862 276.374695,79.726799 276.761719,79.627998 
	C291.088196,75.970757 302.367798,81.512146 311.529236,91.891037 
	C319.344788,100.745163 326.407806,110.261246 333.870972,119.429787 
	C336.916748,123.171539 340.015533,126.885208 343.309784,130.406250 
	C348.924744,136.407730 355.815674,140.089859 365.125885,140.710663 
	C352.706451,151.324341 352.919006,165.200500 352.152161,178.837799 
	C351.424072,191.786560 351.083771,204.816238 349.229736,217.615753 
	C348.395508,223.374832 344.293488,228.660553 341.430908,234.419678 
M153.025772,340.654541 
	C169.125992,343.857574 175.270187,340.524048 182.177612,325.094360 
	C182.639679,324.062164 184.255325,323.011292 185.407867,322.922516 
	C189.030518,322.643433 192.688248,322.819763 196.389679,322.819763 
	C197.056946,324.700989 197.583893,326.248535 198.152832,327.780548 
	C201.887939,337.837921 208.551880,342.446228 219.277328,341.514496 
	C224.699875,341.043427 230.088043,339.673370 235.378494,338.279785 
	C250.777679,334.223480 265.561737,327.570526 281.905060,327.489380 
	C282.840637,327.484741 284.288849,326.243622 284.622559,325.275879 
	C289.155670,312.129944 297.867371,301.504425 305.406586,290.149384 
	C309.808411,283.519623 314.276581,276.794220 317.530060,269.577698 
	C321.459564,260.861633 319.643768,253.123642 312.291504,247.639404 
	C307.070160,243.744690 306.877960,240.178970 309.000397,234.721054 
	C310.371521,231.195084 311.808685,229.921875 315.654999,229.870163 
	C326.954102,229.718231 333.921021,224.109894 335.817474,212.953125 
	C337.176361,204.959259 337.376556,196.741028 337.713165,188.607132 
	C338.242584,175.815155 337.488831,162.923492 341.452850,150.455521 
	C341.754852,149.505600 341.305573,147.685760 340.562225,147.128845 
	C328.735565,138.268188 321.011261,125.865730 312.018433,114.543037 
	C307.684723,109.086571 303.258698,103.581070 298.141693,98.898544 
	C290.937866,92.306328 282.591705,91.221092 275.278076,96.464943 
	C269.812653,100.383591 266.276886,99.589615 261.565094,95.645813 
	C258.610260,93.172585 258.024445,91.392464 259.144348,87.792206 
	C262.355194,77.470230 259.534882,70.067497 250.445724,64.158829 
	C247.400452,62.179165 244.060410,60.557304 240.682968,59.200375 
	C224.065536,52.524105 206.123093,49.055218 191.046021,38.605003 
	C190.329941,38.108685 188.633041,38.617706 187.579330,39.081787 
	C177.258499,43.627262 167.042770,48.416794 156.664886,52.825596 
	C147.806076,56.589054 138.403809,59.234928 129.913727,63.663147 
	C119.692085,68.994499 116.995949,77.108246 120.333664,88.164009 
	C121.267380,91.256836 121.506111,93.658249 118.161156,95.174698 
	C114.568756,96.803314 112.530235,102.280113 106.744492,98.057037 
	C97.099586,91.017105 89.063095,91.784401 80.113510,99.774818 
	C76.541000,102.964432 73.465881,106.765320 70.457199,110.522461 
	C59.974731,123.612617 51.205627,138.179169 38.035480,147.794525 
	C39.115414,155.951279 40.527836,163.469162 41.014812,171.046539 
	C41.719597,182.013016 41.520275,193.035522 42.128052,204.010788 
	C43.137413,222.237823 50.604893,230.447800 66.120987,230.130692 
	C71.297592,230.024902 69.742424,235.616699 71.363411,238.526047 
	C72.978622,241.425049 72.182877,243.436707 69.291710,245.564453 
	C59.883003,252.488831 57.519051,260.836487 62.477158,271.434814 
	C65.486252,277.867004 69.636169,283.808472 73.637314,289.724396 
	C81.370041,301.157654 90.056458,311.985077 94.841125,325.208160 
	C95.255882,326.354401 97.478386,327.247009 98.994553,327.521973 
	C104.382515,328.499146 109.953232,328.673401 115.227036,330.034210 
	C127.620956,333.232208 139.883438,336.939606 153.025772,340.654541 
z"/>
<path fill="#F7F7F7" opacity="1.000000" stroke="none" 
	d="
M152.612442,340.547699 
	C139.883438,336.939606 127.620956,333.232208 115.227036,330.034210 
	C109.953232,328.673401 104.382515,328.499146 98.994553,327.521973 
	C97.478386,327.247009 95.255882,326.354401 94.841125,325.208160 
	C90.056458,311.985077 81.370041,301.157654 73.637314,289.724396 
	C69.636169,283.808472 65.486252,277.867004 62.477158,271.434814 
	C57.519051,260.836487 59.883003,252.488831 69.291710,245.564453 
	C72.182877,243.436707 72.978622,241.425049 71.363411,238.526047 
	C69.742424,235.616699 71.297592,230.024902 66.120987,230.130692 
	C50.604893,230.447800 43.137413,222.237823 42.128052,204.010788 
	C41.520275,193.035522 41.719597,182.013016 41.014812,171.046539 
	C40.527836,163.469162 39.115414,155.951279 38.035480,147.794525 
	C51.205627,138.179169 59.974731,123.612617 70.457199,110.522461 
	C73.465881,106.765320 76.541000,102.964432 80.113510,99.774818 
	C89.063095,91.784401 97.099586,91.017105 106.744492,98.057037 
	C112.530235,102.280113 114.568756,96.803314 118.161156,95.174698 
	C121.506111,93.658249 121.267380,91.256836 120.333664,88.164009 
	C116.995949,77.108246 119.692085,68.994499 129.913727,63.663147 
	C138.403809,59.234928 147.806076,56.589054 156.664886,52.825596 
	C167.042770,48.416794 177.258499,43.627262 187.579330,39.081787 
	C188.633041,38.617706 190.329941,38.108685 191.046021,38.605003 
	C206.123093,49.055218 224.065536,52.524105 240.682968,59.200375 
	C244.060410,60.557304 247.400452,62.179165 250.445724,64.158829 
	C259.534882,70.067497 262.355194,77.470230 259.144348,87.792206 
	C258.024445,91.392464 258.610260,93.172585 261.565094,95.645813 
	C266.276886,99.589615 269.812653,100.383591 275.278076,96.464943 
	C282.591705,91.221092 290.937866,92.306328 298.141693,98.898544 
	C303.258698,103.581070 307.684723,109.086571 312.018433,114.543037 
	C321.011261,125.865730 328.735565,138.268188 340.562225,147.128845 
	C341.305573,147.685760 341.754852,149.505600 341.452850,150.455521 
	C337.488831,162.923492 338.242584,175.815155 337.713165,188.607132 
	C337.376556,196.741028 337.176361,204.959259 335.817474,212.953125 
	C333.921021,224.109894 326.954102,229.718231 315.654999,229.870163 
	C311.808685,229.921875 310.371521,231.195084 309.000397,234.721054 
	C306.877960,240.178970 307.070160,243.744690 312.291504,247.639404 
	C319.643768,253.123642 321.459564,260.861633 317.530060,269.577698 
	C314.276581,276.794220 309.808411,283.519623 305.406586,290.149384 
	C297.867371,301.504425 289.155670,312.129944 284.622559,325.275879 
	C284.288849,326.243622 282.840637,327.484741 281.905060,327.489380 
	C265.561737,327.570526 250.777679,334.223480 235.378494,338.279785 
	C230.088043,339.673370 224.699875,341.043427 219.277328,341.514496 
	C208.551880,342.446228 201.887939,337.837921 198.152832,327.780548 
	C197.583893,326.248535 197.056946,324.700989 196.389679,322.819763 
	C192.688248,322.819763 189.030518,322.643433 185.407867,322.922516 
	C184.255325,323.011292 182.639679,324.062164 182.177612,325.094360 
	C175.270187,340.524048 169.125992,343.857574 152.612442,340.547699 
M280.888702,112.636322 
	C277.106964,108.800499 273.113220,105.301147 267.420624,103.190414 
	C267.158447,107.257652 266.963562,110.280899 266.733643,113.848183 
	C263.945618,111.430565 261.824280,109.315262 259.427246,107.580986 
	C256.304321,105.321495 254.772324,102.740585 254.309250,98.637268 
	C253.099014,87.913544 240.508972,79.502106 228.574112,81.249008 
	C229.602005,84.139984 230.596054,86.935768 231.590103,89.731552 
	C231.276367,90.074883 230.962616,90.418213 230.648880,90.761543 
	C227.674530,88.673569 224.272385,86.995865 221.804276,84.422379 
	C213.694016,75.965782 202.617691,75.133583 193.577240,82.505852 
	C191.509949,84.191666 191.557159,85.439606 192.871857,87.489868 
	C198.179550,95.767105 208.560074,99.822174 217.747726,96.031418 
	C223.135773,93.808357 226.859253,95.406036 230.798874,98.355324 
	C227.042160,100.317757 223.412308,102.213921 219.722717,104.141296 
	C226.453583,113.878616 238.424362,117.432434 248.668625,113.225502 
	C249.905472,112.717583 251.956604,112.129425 252.658035,112.724510 
	C256.461273,115.951157 259.958862,119.538094 263.561707,123.000938 
	C263.303711,123.410103 263.045746,123.819275 262.787750,124.228439 
	C257.617767,124.228439 252.447769,124.228439 247.078415,124.228439 
	C251.459579,138.966080 262.056732,146.923096 276.682312,147.128937 
	C277.595428,147.141785 279.097565,147.326828 279.319397,147.854645 
	C281.290619,152.545059 283.034851,157.330872 285.164093,162.924072 
	C279.378937,160.614975 275.053223,158.888397 270.218231,156.958557 
	C267.677490,172.005173 271.056458,183.816498 282.280823,192.843155 
	C288.341278,197.716980 288.709412,198.717209 285.804047,207.334396 
	C282.255463,203.338089 278.850800,199.503830 274.779236,194.918579 
	C271.367462,206.377502 271.292908,216.681091 273.899780,226.992218 
	C274.148285,227.975143 276.291687,229.056717 277.588135,229.099518 
	C284.078278,229.313797 290.580292,229.253098 297.075775,229.146912 
	C298.298218,229.126938 300.070221,228.852371 300.640717,228.034241 
	C306.709229,219.331650 309.195526,209.694916 308.122498,198.195404 
	C303.324524,200.844894 299.336639,203.047028 295.060547,205.408310 
	C294.916962,200.442398 295.380676,196.286499 299.880646,193.468307 
	C301.800171,192.266174 303.277588,190.294098 304.805206,188.540558 
	C315.357178,176.427902 312.079468,156.428116 300.048523,145.451874 
	C297.660736,149.425140 295.330902,153.302048 292.812622,157.492508 
	C291.029205,152.817566 289.293762,148.728241 287.940277,144.516159 
	C287.313568,142.565720 286.845795,140.234024 287.310455,138.318893 
	C289.606995,128.853607 287.718323,120.517120 280.888702,112.636322 
M92.189301,123.024132 
	C92.173416,128.289551 92.171013,133.555054 92.133507,138.820328 
	C92.122169,140.410599 92.380775,142.127502 91.881912,143.566696 
	C90.252899,148.266296 88.331444,152.864532 86.526497,157.491470 
	C84.099213,153.461807 81.628624,149.360245 78.992439,144.983795 
	C64.089005,161.736328 64.649864,181.270218 80.013092,193.872070 
	C83.984711,197.129822 84.479797,200.656601 84.123077,205.245346 
	C79.813110,202.929657 75.816528,200.782333 71.065704,198.229767 
	C70.213142,209.604660 72.699730,219.008682 78.352310,227.557251 
	C78.997231,228.532578 80.889320,229.102112 82.220436,229.133820 
	C88.716530,229.288666 95.220673,229.097473 101.717323,229.240234 
	C104.412994,229.299469 105.881172,228.377777 105.902298,225.648392 
	C105.967606,217.210815 106.045212,208.772232 105.960815,200.335602 
	C105.946213,198.876251 105.164497,197.424561 104.414604,194.871170 
	C100.344162,199.615601 97.075920,203.424988 93.647835,207.420685 
	C90.586411,199.312988 91.047928,197.549469 97.140961,192.785477 
	C107.947105,184.336426 113.144920,168.383560 108.231178,157.060806 
	C103.860252,158.968597 99.482590,160.879333 94.270241,163.154373 
	C95.745079,158.771606 97.076675,155.224472 98.121239,151.594742 
	C99.159607,147.986542 101.045280,146.947021 104.988075,147.178894 
	C116.803596,147.873718 129.912018,136.556458 131.873581,124.066818 
	C126.623283,124.066818 121.458549,124.066818 116.293823,124.066818 
	C115.999985,123.568764 115.706146,123.070709 115.412315,122.572655 
	C118.464035,119.828354 121.625175,117.193985 124.530273,114.302383 
	C126.578789,112.263397 128.320969,112.051765 131.058701,113.249168 
	C140.941498,117.571602 152.792831,113.822968 159.607376,104.140640 
	C155.894562,102.195663 152.248459,100.285614 148.535812,98.340721 
	C152.730042,95.272141 156.558746,94.054550 161.931870,96.089790 
	C172.513016,100.097717 183.948029,94.467155 187.614166,84.454865 
	C177.745193,74.790596 166.109497,75.169098 157.024628,85.027931 
	C154.821335,87.418938 151.420197,88.706131 148.569855,90.500885 
	C148.351089,90.111198 148.132309,89.721504 147.913544,89.331818 
	C148.879074,86.626442 149.844589,83.921059 150.866074,81.058861 
	C136.710266,80.002953 126.142235,88.401817 124.638000,101.236107 
	C124.510986,102.319862 124.306839,103.709549 123.593674,104.356331 
	C120.092606,107.531525 116.407242,110.503487 112.402687,113.870323 
	C112.205521,110.063980 112.046539,106.994888 111.883987,103.856804 
	C104.113052,105.723495 96.233971,113.346405 92.189301,123.024132 
M213.052475,193.245682 
	C216.413834,177.945724 212.929352,164.253387 203.626373,151.782043 
	C195.873810,141.389145 192.893417,129.746460 195.317459,116.868469 
	C195.462738,116.096642 195.411804,115.287872 195.495331,113.650215 
	C193.592957,114.921402 192.213760,115.726013 190.963638,116.696823 
	C180.850433,124.550461 173.334854,134.443588 168.930481,146.429291 
	C161.361450,167.027084 161.348053,186.807434 175.916092,204.932053 
	C181.272110,211.595642 185.977570,218.782135 191.130173,225.939026 
	C202.018478,218.203186 209.397949,207.501328 213.052475,193.245682 
M122.499886,256.362274 
	C144.076233,256.362274 165.652588,256.362274 187.284561,256.362274 
	C187.284561,248.140854 187.284561,240.755432 187.284561,233.429443 
	C150.312378,233.429443 113.777756,233.429443 76.196236,233.429443 
	C79.069031,240.360992 81.708427,246.598022 84.232620,252.881332 
	C85.316841,255.580215 87.090286,256.475861 90.007576,256.429749 
	C100.502739,256.263733 111.002106,256.363190 122.499886,256.362274 
M297.205597,251.798447 
	C299.607880,245.843750 302.010162,239.889053 304.594788,233.482422 
	C266.912048,233.482422 230.262497,233.482422 193.643036,233.482422 
	C193.643036,241.266327 193.643036,248.635513 193.643036,256.051788 
	C194.704239,256.186340 195.354599,256.340637 196.005051,256.340973 
	C227.805511,256.358734 259.606140,256.318329 291.406158,256.440247 
	C294.512268,256.452148 295.966400,255.086533 297.205597,251.798447 
M227.499908,284.251129 
	C241.654785,284.249725 255.809769,284.273254 269.964386,284.212402 
	C271.565033,284.205536 273.808014,284.306244 274.658173,283.366486 
	C280.021484,277.437866 285.075562,271.229462 290.231781,265.113464 
	C289.872589,264.741486 289.513428,264.369476 289.154266,263.997467 
	C257.328217,263.997467 225.502167,263.997467 193.463135,263.997467 
	C193.463135,270.784241 193.463135,277.202545 193.463135,284.251160 
	C204.633118,284.251160 215.566513,284.251160 227.499908,284.251129 
M159.499908,284.251678 
	C168.750778,284.251678 178.001648,284.251678 187.459686,284.251678 
	C187.459686,277.124329 187.459686,270.709076 187.459686,264.018311 
	C155.269531,264.018311 123.330025,264.018311 90.022270,264.018311 
	C95.091537,270.298737 99.208138,275.895172 103.906242,280.951324 
	C105.559349,282.730408 108.621796,284.060028 111.067101,284.103271 
	C126.873970,284.382660 142.688126,284.249573 159.499908,284.251678 
M256.402649,291.566895 
	C235.489517,291.566895 214.576401,291.566895 193.650665,291.566895 
	C193.650665,301.034088 193.650665,309.737915 193.650665,318.732727 
	C220.327621,317.591370 243.749435,309.313843 264.130310,293.015411 
	C264.005402,292.533173 263.880524,292.050903 263.755615,291.568634 
	C261.627289,291.568634 259.498993,291.568634 256.402649,291.566895 
M155.153961,313.407532 
	C165.633362,316.484283 176.248444,318.605011 187.261505,318.516083 
	C187.261505,309.285278 187.261505,300.613892 187.261505,292.004852 
	C163.530334,292.004852 140.264694,292.004852 115.618744,292.004852 
	C127.940491,302.117523 140.590225,308.677795 155.153961,313.407532 
z"/>
<path fill="#272224" opacity="1.000000" stroke="none" 
	d="
M281.138092,112.894897 
	C287.718323,120.517120 289.606995,128.853607 287.310455,138.318893 
	C286.845795,140.234024 287.313568,142.565720 287.940277,144.516159 
	C289.293762,148.728241 291.029205,152.817566 292.812622,157.492508 
	C295.330902,153.302048 297.660736,149.425140 300.048523,145.451874 
	C312.079468,156.428116 315.357178,176.427902 304.805206,188.540558 
	C303.277588,190.294098 301.800171,192.266174 299.880646,193.468307 
	C295.380676,196.286499 294.916962,200.442398 295.060547,205.408310 
	C299.336639,203.047028 303.324524,200.844894 308.122498,198.195404 
	C309.195526,209.694916 306.709229,219.331650 300.640717,228.034241 
	C300.070221,228.852371 298.298218,229.126938 297.075775,229.146912 
	C290.580292,229.253098 284.078278,229.313797 277.588135,229.099518 
	C276.291687,229.056717 274.148285,227.975143 273.899780,226.992218 
	C271.292908,216.681091 271.367462,206.377502 274.779236,194.918579 
	C278.850800,199.503830 282.255463,203.338089 285.804047,207.334396 
	C288.709412,198.717209 288.341278,197.716980 282.280823,192.843155 
	C271.056458,183.816498 267.677490,172.005173 270.218231,156.958557 
	C275.053223,158.888397 279.378937,160.614975 285.164093,162.924072 
	C283.034851,157.330872 281.290619,152.545059 279.319397,147.854645 
	C279.097565,147.326828 277.595428,147.141785 276.682312,147.128937 
	C262.056732,146.923096 251.459579,138.966080 247.078415,124.228439 
	C252.447769,124.228439 257.617767,124.228439 262.787750,124.228439 
	C263.045746,123.819275 263.303711,123.410103 263.561707,123.000938 
	C259.958862,119.538094 256.461273,115.951157 252.658035,112.724510 
	C251.956604,112.129425 249.905472,112.717583 248.668625,113.225502 
	C238.424362,117.432434 226.453583,113.878616 219.722717,104.141296 
	C223.412308,102.213921 227.042160,100.317757 230.798874,98.355324 
	C226.859253,95.406036 223.135773,93.808357 217.747726,96.031418 
	C208.560074,99.822174 198.179550,95.767105 192.871857,87.489868 
	C191.557159,85.439606 191.509949,84.191666 193.577240,82.505852 
	C202.617691,75.133583 213.694016,75.965782 221.804276,84.422379 
	C224.272385,86.995865 227.674530,88.673569 230.648880,90.761543 
	C230.962616,90.418213 231.276367,90.074883 231.590103,89.731552 
	C230.596054,86.935768 229.602005,84.139984 228.574112,81.249008 
	C240.508972,79.502106 253.099014,87.913544 254.309250,98.637268 
	C254.772324,102.740585 256.304321,105.321495 259.427246,107.580986 
	C261.824280,109.315262 263.945618,111.430565 266.733643,113.848183 
	C266.963562,110.280899 267.158447,107.257652 267.420624,103.190414 
	C273.113220,105.301147 277.106964,108.800499 281.138092,112.894897 
z"/>
<path fill="#272224" opacity="1.000000" stroke="none" 
	d="
M92.347153,122.657196 
	C96.233971,113.346405 104.113052,105.723495 111.883987,103.856804 
	C112.046539,106.994888 112.205521,110.063980 112.402687,113.870323 
	C116.407242,110.503487 120.092606,107.531525 123.593674,104.356331 
	C124.306839,103.709549 124.510986,102.319862 124.638000,101.236107 
	C126.142235,88.401817 136.710266,80.002953 150.866074,81.058861 
	C149.844589,83.921059 148.879074,86.626442 147.913544,89.331818 
	C148.132309,89.721504 148.351089,90.111198 148.569855,90.500885 
	C151.420197,88.706131 154.821335,87.418938 157.024628,85.027931 
	C166.109497,75.169098 177.745193,74.790596 187.614166,84.454865 
	C183.948029,94.467155 172.513016,100.097717 161.931870,96.089790 
	C156.558746,94.054550 152.730042,95.272141 148.535812,98.340721 
	C152.248459,100.285614 155.894562,102.195663 159.607376,104.140640 
	C152.792831,113.822968 140.941498,117.571602 131.058701,113.249168 
	C128.320969,112.051765 126.578789,112.263397 124.530273,114.302383 
	C121.625175,117.193985 118.464035,119.828354 115.412315,122.572655 
	C115.706146,123.070709 115.999985,123.568764 116.293823,124.066818 
	C121.458549,124.066818 126.623283,124.066818 131.873581,124.066818 
	C129.912018,136.556458 116.803596,147.873718 104.988075,147.178894 
	C101.045280,146.947021 99.159607,147.986542 98.121239,151.594742 
	C97.076675,155.224472 95.745079,158.771606 94.270241,163.154373 
	C99.482590,160.879333 103.860252,158.968597 108.231178,157.060806 
	C113.144920,168.383560 107.947105,184.336426 97.140961,192.785477 
	C91.047928,197.549469 90.586411,199.312988 93.647835,207.420685 
	C97.075920,203.424988 100.344162,199.615601 104.414604,194.871170 
	C105.164497,197.424561 105.946213,198.876251 105.960815,200.335602 
	C106.045212,208.772232 105.967606,217.210815 105.902298,225.648392 
	C105.881172,228.377777 104.412994,229.299469 101.717323,229.240234 
	C95.220673,229.097473 88.716530,229.288666 82.220436,229.133820 
	C80.889320,229.102112 78.997231,228.532578 78.352310,227.557251 
	C72.699730,219.008682 70.213142,209.604660 71.065704,198.229767 
	C75.816528,200.782333 79.813110,202.929657 84.123077,205.245346 
	C84.479797,200.656601 83.984711,197.129822 80.013092,193.872070 
	C64.649864,181.270218 64.089005,161.736328 78.992439,144.983795 
	C81.628624,149.360245 84.099213,153.461807 86.526497,157.491470 
	C88.331444,152.864532 90.252899,148.266296 91.881912,143.566696 
	C92.380775,142.127502 92.122169,140.410599 92.133507,138.820328 
	C92.171013,133.555054 92.173416,128.289551 92.347153,122.657196 
z"/>
<path fill="#251E21" opacity="1.000000" stroke="none" 
	d="
M212.958740,193.657837 
	C209.397949,207.501328 202.018478,218.203186 191.130173,225.939026 
	C185.977570,218.782135 181.272110,211.595642 175.916092,204.932053 
	C161.348053,186.807434 161.361450,167.027084 168.930481,146.429291 
	C173.334854,134.443588 180.850433,124.550461 190.963638,116.696823 
	C192.213760,115.726013 193.592957,114.921402 195.495331,113.650215 
	C195.411804,115.287872 195.462738,116.096642 195.317459,116.868469 
	C192.893417,129.746460 195.873810,141.389145 203.626373,151.782043 
	C212.929352,164.253387 216.413834,177.945724 212.958740,193.657837 
z"/>
<path fill="#261F22" opacity="1.000000" stroke="none" 
	d="
M121.999878,256.362305 
	C111.002106,256.363190 100.502739,256.263733 90.007576,256.429749 
	C87.090286,256.475861 85.316841,255.580215 84.232620,252.881332 
	C81.708427,246.598022 79.069031,240.360992 76.196236,233.429443 
	C113.777756,233.429443 150.312378,233.429443 187.284561,233.429443 
	C187.284561,240.755432 187.284561,248.140854 187.284561,256.362274 
	C165.652588,256.362274 144.076233,256.362274 121.999878,256.362305 
z"/>
<path fill="#251F21" opacity="1.000000" stroke="none" 
	d="
M297.061340,252.166626 
	C295.966400,255.086533 294.512268,256.452148 291.406158,256.440247 
	C259.606140,256.318329 227.805511,256.358734 196.005051,256.340973 
	C195.354599,256.340637 194.704239,256.186340 193.643036,256.051788 
	C193.643036,248.635513 193.643036,241.266327 193.643036,233.482422 
	C230.262497,233.482422 266.912048,233.482422 304.594788,233.482422 
	C302.010162,239.889053 299.607880,245.843750 297.061340,252.166626 
z"/>
<path fill="#221D1F" opacity="1.000000" stroke="none" 
	d="
M226.999908,284.251160 
	C215.566513,284.251160 204.633118,284.251160 193.463135,284.251160 
	C193.463135,277.202545 193.463135,270.784241 193.463135,263.997467 
	C225.502167,263.997467 257.328217,263.997467 289.154266,263.997467 
	C289.513428,264.369476 289.872589,264.741486 290.231781,265.113464 
	C285.075562,271.229462 280.021484,277.437866 274.658173,283.366486 
	C273.808014,284.306244 271.565033,284.205536 269.964386,284.212402 
	C255.809769,284.273254 241.654785,284.249725 226.999908,284.251160 
z"/>
<path fill="#231D1F" opacity="1.000000" stroke="none" 
	d="
M158.999908,284.251709 
	C142.688126,284.249573 126.873970,284.382660 111.067101,284.103271 
	C108.621796,284.060028 105.559349,282.730408 103.906242,280.951324 
	C99.208138,275.895172 95.091537,270.298737 90.022270,264.018311 
	C123.330025,264.018311 155.269531,264.018311 187.459686,264.018311 
	C187.459686,270.709076 187.459686,277.124329 187.459686,284.251678 
	C178.001648,284.251678 168.750778,284.251678 158.999908,284.251709 
z"/>
<path fill="#252122" opacity="1.000000" stroke="none" 
	d="
M256.886658,291.567749 
	C259.498993,291.568634 261.627289,291.568634 263.755615,291.568634 
	C263.880524,292.050903 264.005402,292.533173 264.130310,293.015411 
	C243.749435,309.313843 220.327621,317.591370 193.650665,318.732727 
	C193.650665,309.737915 193.650665,301.034088 193.650665,291.566895 
	C214.576401,291.566895 235.489517,291.566895 256.886658,291.567749 
z"/>
<path fill="#252123" opacity="1.000000" stroke="none" 
	d="
M154.779373,313.269287 
	C140.590225,308.677795 127.940491,302.117523 115.618744,292.004852 
	C140.264694,292.004852 163.530334,292.004852 187.261505,292.004852 
	C187.261505,300.613892 187.261505,309.285278 187.261505,318.516083 
	C176.248444,318.605011 165.633362,316.484283 154.779373,313.269287 
z"/>
</svg>